<svg xmlns="http://www.w3.org/2000/svg" width="48" height="48" viewBox="0 0 302.292 286.156">
  <g id="bluebird" transform="translate(-552.5 -416.5)">
    <g id="bird" transform="translate(551.374 416.5)" fill="#42c5fd" stroke-linecap="square">
      <path d="M 96.25685882568359 241.520263671875 C 87.78331756591797 241.520263671875 79.38285827636719 240.9515533447266 71.28890228271484 239.8298950195312 C 63.2067756652832 238.7098541259766 55.20131683349609 237.0067596435547 47.49489974975586 234.7679748535156 C 39.79252243041992 232.5303039550781 32.17015075683594 229.6939239501953 24.83956527709961 226.3376007080078 C 22.30363082885742 225.176513671875 19.77712821960449 223.9414978027344 17.26956367492676 222.6377410888672 C 46.08041381835938 222.3117065429688 72.43473815917969 213.0042266845703 95.62940216064453 194.9604339599609 L 104.3124389648438 188.2056884765625 L 93.31873321533203 187.8058929443359 C 87.10494232177734 187.5799255371094 81.11127471923828 186.4664764404297 75.504150390625 184.4963836669922 C 69.89939880371094 182.5271759033203 64.51194000244141 179.6427154541016 59.49131774902344 175.9232177734375 L 59.48839950561523 175.9210510253906 L 59.48543930053711 175.9188842773438 C 54.47002410888672 172.2173919677734 50.17927551269531 167.9580078125 46.73248291015625 163.2590942382812 C 44.62007522583008 160.3793334960938 42.78411102294922 157.2790832519531 41.2417106628418 153.9917602539062 C 43.27138519287109 154.2581787109375 44.98462295532227 154.3895568847656 46.40914916992188 154.3895568847656 C 52.39939880371094 154.3895568847656 58.43044281005859 153.5686798095703 64.33473205566406 151.9497680664062 L 63.98302459716797 144.1549377441406 C 57.32602310180664 142.961181640625 51.15985870361328 140.7023468017578 45.6557731628418 137.4411468505859 C 40.14385604858398 134.1752624511719 35.11119079589844 129.7952575683594 30.69752502441406 124.4228057861328 C 26.27610778808594 119.0408096313477 22.91864967346191 113.2124328613281 20.71844100952148 107.0995559692383 C 19.06290435791016 102.4999694824219 18.02078437805176 97.62294769287109 17.60527420043945 92.54666137695312 C 26.03207206726074 96.41777038574219 33.88794708251953 98.37509918212891 41.02831649780273 98.37509918212891 L 53.93294143676758 98.37509918212891 L 43.29069137573242 91.07634735107422 C 39.09335708618164 88.19772338867188 35.37681579589844 84.98468017578125 32.24423217773438 81.52651214599609 C 29.13385772705078 78.09276580810547 26.50685691833496 74.31480407714844 24.4362735748291 70.29755401611328 C 22.36114883422852 66.27155303955078 20.78106689453125 61.88163757324219 19.7398567199707 57.24976348876953 C 18.68810844421387 52.57084655761719 18.15481567382812 47.50726318359375 18.15481567382812 42.1995964050293 C 18.15481567382812 36.6812629699707 18.76156616210938 31.46159744262695 19.95823287963867 26.68564033508301 C 20.65332221984863 23.91140937805176 21.55998229980469 21.23792266845703 22.66804313659668 18.69023895263672 C 55.95348358154297 56.8398551940918 98.68515777587891 77.44454956054688 149.7772369384766 79.96067810058594 L 154.7399444580078 80.20505523681641 L 153.9190216064453 75.30464172363281 C 152.9325256347656 69.41593170166016 152.4323120117188 64.99030303955078 152.4323120117188 62.15076446533203 C 152.4323120117188 58.07259750366211 152.7886505126953 54.10247421264648 153.4913940429688 50.35063934326172 C 154.1896514892578 46.62284851074219 155.2500305175781 43.00363922119141 156.6431427001953 39.5936393737793 C 158.0347747802734 36.18722152709961 159.7991943359375 32.88968276977539 161.8874053955078 29.79259872436523 C 163.9857788085938 26.6804313659668 166.4721069335938 23.68009757995605 169.2772369384766 20.87493133544922 C 172.0899810791016 18.06222343444824 175.0964813232422 15.56984806060791 178.2131958007812 13.46709823608398 C 181.3141021728516 11.37501430511475 184.6146545410156 9.607681274414062 188.0231475830078 8.214180946350098 C 191.4342803955078 6.819597721099854 195.0543518066406 5.758222579956055 198.7828521728516 5.059472560882568 C 202.5341949462891 4.356472969055176 206.5043640136719 4.000014305114746 210.5830688476562 4.000014305114746 C 214.9109344482422 4.000014305114746 219.0939483642578 4.380055904388428 223.0158538818359 5.129556179046631 C 226.9042358398438 5.872681140899658 230.6477355957031 7.000514507293701 234.1424407958984 8.481722831726074 C 237.6261901855469 9.958306312561035 240.9661560058594 11.8299732208252 244.0695190429688 14.04480648040771 C 247.1849060058594 16.26818084716797 250.1541900634766 18.90309715270996 252.8949432373047 21.8763484954834 L 254.4400177001953 23.5524730682373 L 256.6696472167969 23.07738876342773 C 267.5106811523438 20.76737594604492 277.7521667480469 17.40233039855957 287.2410278320312 13.03933429718018 C 287.2122497558594 13.0950984954834 287.1834411621094 13.15067481994629 287.1545104980469 13.20626449584961 C 285.5835571289062 16.2253475189209 283.7380981445312 19.07413864135742 281.6694030761719 21.67351531982422 C 279.6016845703125 24.27163887023926 277.2491760253906 26.69822311401367 274.67724609375 28.88588905334473 C 272.0926513671875 31.0842227935791 269.2099304199219 33.10651397705078 266.1091003417969 34.89655685424805 L 268.6276550292969 42.32697296142578 C 276.4944763183594 41.2981071472168 284.3932800292969 39.59579467773438 292.2333068847656 37.24365997314453 C 290.0208740234375 39.92961120605469 287.7897033691406 42.45596313476562 285.5516357421875 44.80809783935547 C 280.6280212402344 49.98263931274414 275.5344543457031 54.45722198486328 270.4124450683594 58.10751342773438 L 268.73388671875 59.30376434326172 L 268.73388671875 61.36493301391602 L 268.73388671875 69.04309844970703 C 268.73388671875 79.99676513671875 267.7481079101562 90.83338928222656 265.8038940429688 101.2519760131836 C 263.8614501953125 111.6613464355469 260.9066162109375 121.9511413574219 257.0215759277344 131.8355560302734 C 253.1335601806641 141.7274322509766 248.2027282714844 151.4963531494141 242.3659820556641 160.8708953857422 C 236.5178985595703 170.2637176513672 229.5941009521484 179.5278472900391 221.7869873046875 188.4059295654297 C 214.0238952636719 197.2256774902344 205.4868621826172 205.0480194091797 196.4142303466797 211.6541748046875 C 187.3524780273438 218.2524719238281 177.4944000244141 223.8282623291016 167.1138153076172 228.2265930175781 C 156.7182769775391 232.6312713623047 145.4983978271484 235.9825592041016 133.7658538818359 238.1873474121094 C 121.9974822998047 240.39892578125 109.3776473999023 241.520263671875 96.25685882568359 241.520263671875 Z" stroke="none"/>
      <path d="M 210.5830993652344 8 C 195.258544921875 8 182.6724548339844 13.13664245605469 172.1056823730469 23.70332336425781 C 161.5591430664062 34.25 156.4323272705078 46.82623291015625 156.4323272705078 62.15077209472656 C 156.4323272705078 63.95132446289062 156.6807250976562 67.58027648925781 157.8640441894531 74.64369201660156 L 159.5059967041016 84.44459533691406 L 149.5805053710938 83.95582580566406 C 99.65020751953125 81.49693298339844 57.53092956542969 62.13478088378906 24.1951904296875 26.35797119140625 C 22.83847045898438 31.21656799316406 22.15481567382812 36.51139831542969 22.15481567382812 42.19960021972656 C 22.15481567382812 62.07086181640625 29.80844116210938 76.97959899902344 45.55303955078125 87.777587890625 L 66.83763122558594 102.3750915527344 L 41.0283203125 102.3750915527344 C 35.23489379882812 102.3750915527344 29.04830932617188 101.2029724121094 22.53329467773438 98.8780517578125 C 24.26492309570312 107.2298431396484 27.99066162109375 114.8265228271484 33.78823852539062 121.8836364746094 C 42.08206176757812 131.9791870117188 52.1898193359375 137.976318359375 64.68904113769531 140.2177276611328 L 65.39241027832031 155.807373046875 C 59.73165893554688 157.3595275878906 53.95756530761719 158.2185363769531 48.20217895507812 158.3664855957031 C 51.70011901855469 163.7997741699219 56.23048400878906 168.5452270507812 61.87245178222656 172.7091369628906 C 71.37686157226562 179.7505035400391 81.71058654785156 183.3811340332031 93.46409606933594 183.8085479736328 L 115.4515533447266 184.6081390380859 L 98.08544921875 198.1176452636719 C 78.50973510742188 213.3461151123047 56.74130249023438 222.5359039306641 33.18511962890625 225.5476837158203 C 52.90158081054688 233.5038146972656 74.01310729980469 237.5202789306641 96.25682067871094 237.5202789306641 C 148.0504608154297 237.5202789306641 188.1300048828125 220.5899047851562 218.7831726074219 185.7644653320312 C 249.2738189697266 151.0912322998047 264.7338562011719 111.8204650878906 264.7338562011719 69.0430908203125 L 264.7338562011719 57.2425537109375 L 268.0909423828125 54.85005187988281 C 272.2236938476562 51.90478515625 276.3193359375 48.41081237792969 280.359375 44.38772583007812 C 276.6214599609375 45.16883850097656 272.8805847167969 45.80484008789062 269.1463623046875 46.29322814941406 L 264.1092834472656 31.432373046875 C 268.860595703125 28.68949890136719 272.9412231445312 25.46568298339844 276.3810119628906 21.72340393066406 C 270.3174743652344 23.84281921386719 264.014404296875 25.60211181640625 257.5032348632812 26.98954772949219 L 253.0440521240234 27.93968200683594 L 249.953857421875 24.58741760253906 C 239.6649475097656 13.42578125 226.7866363525391 8 210.5830993652344 8 M 210.5830993652344 0 C 228.9925842285156 0 244.0767822265625 6.408554077148438 255.8359985351562 19.16519165039062 C 270.1643981933594 16.11204528808594 283.2234191894531 11.24517822265625 294.9826354980469 4.594818115234375 C 290.3576354980469 19.43727111816406 281.40966796875 30.68246459960938 268.1089172363281 38.36077880859375 C 279.8982238769531 36.81890869140625 291.657470703125 33.765869140625 303.4175415039062 29.14077758789062 C 293.6828308105469 42.955322265625 283.4651794433594 53.717041015625 272.7338562011719 61.36491394042969 L 272.7338562011719 69.0430908203125 C 272.7338562011719 114.0542755126953 256.7427368164062 154.7123107910156 224.790771484375 191.04736328125 C 192.8084564208984 227.3828277587891 149.9738616943359 245.5202789306641 96.25682067871094 245.5202789306641 C 61.46331787109375 245.5202789306641 29.75296020507812 236.3004150390625 1.126007080078125 217.8909149169922 C 4.17913818359375 218.4048156738281 9.045989990234375 218.6466369628906 15.6964111328125 218.6466369628906 C 44.353515625 218.6466369628906 70.169189453125 209.6988220214844 93.17337036132812 191.8032836914062 C 79.87258911132812 191.3195953369141 67.84141540527344 187.0874938964844 57.11018371582031 179.1372680664062 C 46.37890625 171.2173767089844 38.97280883789062 161.1207275390625 34.89187622070312 148.8478698730469 C 40.00057983398438 149.8756866455078 43.83969116210938 150.3895568847656 46.40914916992188 150.3895568847656 C 52.03176879882812 150.3895568847656 57.65435791015625 149.6338195800781 63.27696228027344 148.0921325683594 C 48.94841003417969 145.5226745605469 37.06845092773438 138.4790954589844 27.60671997070312 126.9619598388672 C 18.14508056640625 115.4446868896484 13.39907836914062 102.2950439453125 13.39907836914062 87.45254516601562 L 13.39907836914062 85.94110107421875 C 23.61651611328125 91.56387329101562 32.83636474609375 94.37509155273438 41.0283203125 94.37509155273438 C 23.13287353515625 82.10195922851562 14.15481567382812 64.72023010253906 14.15481567382812 42.19960021972656 C 14.15481567382812 30.44050598144531 16.72433471679688 20.22309875488281 21.8330078125 11.51713562011719 C 55.0849609375 51.93341064453125 97.79850769042969 73.39604187011719 149.9739990234375 75.96549987792969 C 148.9459533691406 69.82905578613281 148.4323272705078 65.2041015625 148.4323272705078 62.15077209472656 C 148.4323272705078 44.76904296875 154.4479064941406 30.04750061035156 166.4488220214844 18.0465087890625 C 178.4797668457031 6.015594482421875 193.2013549804688 0 210.5830993652344 0 Z" stroke="none" fill="#fff"/>
    </g>
    <path id="fg1" d="M181.739,216.735a21.012,21.012,0,0,0,13.648,0c30.136-10.335,41.023-18.776,41.023-18.776,31.32-21.36,31.6-49.406,31.6-49.406V60.038a8.3,8.3,0,0,0-7.869-8.224c-22.228-.789-54.987-17.119-66.979-23.51a9.768,9.768,0,0,0-9.211,0c-11.991,6.37-44.731,22.721-66.979,23.51a8.3,8.3,0,0,0-7.869,8.224v88.516s.276,28.046,31.6,49.406C140.716,197.959,151.6,206.4,181.739,216.735Z" transform="translate(581.843 484.782)" fill="#fff"/>
    <g id="fg" transform="translate(580.627 483.298)">
      <path id="fg2" d="M236.8,267.776a17.748,17.748,0,0,0,11.474,0c25.331-8.675,34.482-15.782,34.482-15.782,26.323-17.946,26.561-41.53,26.561-41.53V137.053a6.977,6.977,0,0,0-6.611-6.908c-18.68-.655-46.215-14.392-56.279-19.752a8.226,8.226,0,0,0-7.742,0c-10.065,5.36-37.6,19.1-56.279,19.752a6.964,6.964,0,0,0-6.611,6.908v73.411s.238,23.584,26.561,41.53C202.322,251.994,211.473,259.1,236.8,267.776Z" transform="translate(-52.761 -65.081)" fill="#1da1f2"/>
      <path id="fg3" d="M242.461,109.4a8.117,8.117,0,0,0-3.871.973c-10.065,5.36-37.6,19.1-56.279,19.752a6.964,6.964,0,0,0-6.611,6.908v73.411s.238,23.584,26.561,41.53c0,0,9.152,7.107,34.482,15.782a17.656,17.656,0,0,0,5.737.953V109.4Z" transform="translate(-52.681 -65.061)" fill="#42c5fd"/>
      <path id="fg5" d="M578.781,414.422v-10.9L549.142,363.9,512,398.462v32.775l24.735,33.073c11.1-4.983,15.484-8.377,15.484-8.377C578.543,438.006,578.781,414.422,578.781,414.422Z" transform="translate(-322.22 -269.039)" fill="#42a5f5"/>
      <path id="fg6" d="M376.875,500.709,349.5,485.8l32.259,43.137V496.163Z" transform="translate(-191.979 -366.74)" fill="#64b5f6"/>
      <path id="fg7" d="M374.059,404.267a5.923,5.923,0,0,1-4.189-1.727l-20.9-20.924a5.924,5.924,0,0,1,8.377-8.377l16.715,16.715,33.787-33.788a5.924,5.924,0,0,1,8.377,8.377L378.248,402.52A5.827,5.827,0,0,1,374.059,404.267Z" transform="translate(-190.156 -261.445)" fill="#fff"/>
    </g>
  </g>
</svg>
